<svg width="24" height="24" viewBox="0 0 24 24" fill="none" xmlns="http://www.w3.org/2000/svg">
<path d="M21.25 12.75H19C18.7875 12.75 18.6094 12.6777 18.4657 12.533C18.3219 12.3885 18.25 12.2094 18.25 11.9955C18.25 11.7819 18.3219 11.6042 18.4657 11.4625C18.6094 11.3209 18.7875 11.25 19 11.25H21.25C21.4625 11.25 21.6407 11.3224 21.7845 11.467C21.9282 11.6115 22 11.7907 22 12.0045C22 12.2182 21.9282 12.3959 21.7845 12.5375C21.6407 12.6792 21.4625 12.75 21.25 12.75ZM16.925 17.15C17.0583 16.9834 17.2236 16.8834 17.4208 16.85C17.6178 16.8167 17.8025 16.8667 17.975 17L19.8 18.35C19.9667 18.4834 20.0667 18.6486 20.1 18.8458C20.1333 19.0428 20.0833 19.2275 19.95 19.4C19.8167 19.5667 19.6514 19.6667 19.4543 19.7C19.2572 19.7334 19.0725 19.6834 18.9 19.55L17.075 18.2C16.9083 18.0667 16.8083 17.9015 16.775 17.7043C16.7417 17.5073 16.7917 17.3225 16.925 17.15ZM19.8 5.65004L18.05 6.97504C17.8775 7.10837 17.6928 7.15837 17.4958 7.12504C17.2986 7.09171 17.1333 6.99171 17 6.82504C16.8667 6.65837 16.8167 6.47504 16.85 6.27504C16.8833 6.07504 16.9833 5.90837 17.15 5.77504L18.9 4.45004C19.0725 4.31671 19.2572 4.26671 19.4543 4.30004C19.6514 4.33337 19.8167 4.43337 19.95 4.60004C20.0833 4.76671 20.1333 4.95004 20.1 5.15004C20.0667 5.35004 19.9667 5.51671 19.8 5.65004ZM5.25 15H3.5C3.0875 15 2.73442 14.8531 2.44075 14.5593C2.14692 14.2656 2 13.9125 2 13.5V10.5C2 10.0875 2.14692 9.73437 2.44075 9.44054C2.73442 9.14687 3.0875 9.00004 3.5 9.00004H8L11.875 6.67504C12.125 6.52504 12.375 6.52454 12.625 6.67354C12.875 6.82237 13 7.03954 13 7.32504V16.675C13 16.9605 12.875 17.1777 12.625 17.3265C12.375 17.4755 12.125 17.475 11.875 17.325L8 15H6.75V18.25C6.75 18.4625 6.67767 18.6406 6.533 18.7843C6.3885 18.9281 6.20933 19 5.9955 19C5.78183 19 5.60417 18.9281 5.4625 18.7843C5.32083 18.6406 5.25 18.4625 5.25 18.25V15ZM11.5 15.35V8.65004L8.4 10.5H3.5V13.5H8.4L11.5 15.35ZM14 15.35V8.65004C14.45 9.05004 14.8125 9.53754 15.0875 10.1125C15.3625 10.6875 15.5 11.3167 15.5 12C15.5 12.6834 15.3625 13.3125 15.0875 13.8875C14.8125 14.4625 14.45 14.95 14 15.35Z" fill="white"/>
</svg>
